<svg width="170" height="111" viewBox="0 0 170 111" fill="none" xmlns="http://www.w3.org/2000/svg">
<rect x="0.5" y="0.5" width="168.253" height="109.484" rx="54.7422" stroke="#F3F3F3"/>
<path d="M71.2513 61.4439L68.2394 65.723L58.8365 56.7057L67.4497 47.6701L70.131 52.1879C69.4577 52.3226 68.7659 52.5491 68.0558 52.8674C67.3457 53.1735 66.6478 53.5347 65.9622 53.951C65.2888 54.355 64.6399 54.7958 64.0155 55.2733C63.3911 55.7507 62.834 56.2282 62.3442 56.7057C62.8952 57.2689 63.5196 57.8199 64.2175 58.3586C64.9276 58.8851 65.6683 59.3625 66.4397 59.7911C67.2232 60.2196 68.0252 60.5808 68.8455 60.8746C69.6658 61.1684 70.4677 61.3582 71.2513 61.4439ZM89.9653 56.7057C89.5858 56.669 89.145 56.6384 88.643 56.6139C88.1533 56.5772 87.6452 56.5527 87.1187 56.5404C86.5923 56.516 86.0781 56.4976 85.5761 56.4853C85.0741 56.4731 84.6333 56.467 84.2538 56.467C83.6539 56.467 82.9805 56.4792 82.2336 56.5037C81.499 56.516 80.7461 56.5466 79.9747 56.5955C79.2034 56.6445 78.4504 56.718 77.7158 56.8159C76.9935 56.9139 76.3384 57.0363 75.7508 57.1832V53.804C76.0079 53.8163 76.3262 53.8285 76.7057 53.8408C77.0975 53.8408 77.4954 53.8469 77.8995 53.8591C78.3035 53.8591 78.6953 53.8653 79.0748 53.8775C79.4666 53.8775 79.7972 53.8775 80.0666 53.8775C80.7889 53.8775 81.5725 53.8714 82.4173 53.8591C83.2743 53.8347 84.1375 53.804 85.0068 53.7673C85.8883 53.7183 86.7514 53.6632 87.5962 53.602C88.4533 53.5286 89.243 53.4429 89.9653 53.3449V56.7057ZM108.808 56.7057C108.428 56.669 107.988 56.6384 107.486 56.6139C106.996 56.5772 106.488 56.5527 105.961 56.5404C105.435 56.516 104.921 56.4976 104.419 56.4853C103.917 56.4731 103.476 56.467 103.096 56.467C102.496 56.467 101.823 56.4792 101.076 56.5037C100.342 56.516 99.5886 56.5466 98.8173 56.5955C98.046 56.6445 97.293 56.718 96.5584 56.8159C95.836 56.9139 95.181 57.0363 94.5933 57.1832V53.804C94.8504 53.8163 95.1688 53.8285 95.5483 53.8408C95.9401 53.8408 96.338 53.8469 96.7421 53.8591C97.1461 53.8591 97.5379 53.8653 97.9174 53.8775C98.3092 53.8775 98.6398 53.8775 98.9091 53.8775C99.6315 53.8775 100.415 53.8714 101.26 53.8591C102.117 53.8347 102.98 53.804 103.849 53.7673C104.731 53.7183 105.594 53.6632 106.439 53.602C107.296 53.5286 108.086 53.4429 108.808 53.3449V56.7057Z" fill="#F3F3F3"/>
</svg>
