<svg width="223" height="218" viewBox="0 0 223 218" fill="none" xmlns="http://www.w3.org/2000/svg">
<path d="M166.953 185.044C170.32 193.735 170.668 195.458 170.141 200.864C163.637 205.357 162.808 205.326 157.35 200.034C155.068 197.822 152.896 195.503 150.4 192.953C148.624 193.649 146.816 194.358 144.935 195.096C144.935 199.842 144.907 204.334 144.944 208.826C144.971 212.002 143.016 213.135 140.173 213.963C137.445 214.758 135.353 214.48 133.84 212.137C131.495 208.506 129.273 204.8 126.632 200.531C125.413 200.531 123.304 200.531 121.345 200.531C119.928 205.26 118.602 209.56 117.358 213.883C116.529 216.763 114.752 217.971 111.589 218C108.429 218.028 106.509 216.796 105.659 214.011C104.343 209.702 103.186 205.347 101.855 200.636C100.038 200.442 98.0645 200.231 96.1748 200.03C93.9959 203.81 92.1971 207.546 89.8224 210.898C86.7238 215.272 86.5265 215.144 81.2666 213.536C80.4986 213.301 79.7455 213.02 78.4042 212.562C78.4042 207.047 78.4042 201.42 78.4042 195.526C76.301 194.612 74.5408 193.847 73.0921 193.217C68.6103 197.447 64.4522 201.372 60.3096 205.283C58.5 204.526 57.4269 204.007 56.305 203.622C52.7138 202.39 51.9546 199.626 52.6289 196.513C53.4995 192.495 54.8016 188.565 56.0816 184.015C54.8145 183.007 53.1453 181.679 51.7971 180.606C47.1618 183.077 42.9235 185.303 38.7205 187.59C36.3503 188.88 34.5847 188.118 32.7397 186.459C30.7745 184.692 29.4029 182.765 30.6681 180.253C32.7947 176.032 35.2123 171.949 37.8514 167.187C36.9948 165.996 35.7666 164.289 34.9537 163.159C29.5059 164.23 24.6167 165.207 19.7203 166.149C16.6117 166.747 15.6077 164.442 14.1894 162.49C12.5213 160.194 13.3682 158.272 14.9214 156.62C18.0332 153.309 21.3567 150.187 24.9464 146.636C24.2672 145.245 23.4217 143.513 22.39 141.4C16.5355 141.4 10.7647 141.4 4.95118 141.4C3.99235 138.583 3.24069 136.374 2.43184 133.998C6.47289 129.269 11.7677 126.557 18 124.374C17.62 122.223 17.2572 120.17 16.9318 118.328C11.1836 116.787 5.62964 115.297 0 113.787C0 110.524 0 108.011 0 105.231C4.8324 101.825 10.5663 100.869 16.6564 100.372C17.1381 98.417 17.5973 96.5534 18.1163 94.4473C12.7065 91.4007 6.32657 89.8328 2.70252 84.518C4.44972 76.5079 4.83054 76.1361 13.0656 76.1319C16.0597 76.1303 19.0539 76.5279 22.3366 76.7642C23.2281 75.01 24.0934 73.3075 24.6602 72.1923C21.2037 68.5134 18.1746 65.1252 14.9545 61.9179C12.6596 59.6321 13.1598 57.509 14.4255 54.9507C15.7301 52.3138 17.8173 51.5958 20.3722 52.0811C24.8916 52.9396 29.3537 54.081 34.4521 55.2437C35.3239 54.1075 36.6165 52.4228 37.7662 50.9244C35.4547 46.885 33.2873 43.1485 31.1723 39.3843C29.6106 36.605 30.1302 34.3556 32.4534 31.9591C34.7797 29.5594 37.0843 29.7547 39.5356 31.0073C43.447 33.0058 47.2206 35.2586 51.5061 37.6579C52.5664 36.8887 53.9794 35.8635 55.4155 34.8216C53.9613 29.1436 52.566 23.6956 51.1065 17.9966C52.8352 16.8363 54.2363 15.7226 55.7969 14.8909C57.914 13.7625 60.0335 13.6865 61.9205 15.5225C65.1919 18.7056 68.4989 21.8541 72.0269 25.2439C73.8373 24.5563 75.6693 23.8606 77.9746 22.985C77.7096 20.981 77.214 19.087 77.2647 17.2069C77.3537 13.9011 77.3751 10.5098 78.1656 7.32777C79.0732 3.67421 85.6085 2.37153 87.9886 5.38905C90.9166 9.10102 93.2737 13.2374 96.1969 17.675C97.5318 17.675 99.6767 17.675 101.472 17.675C103.078 12.5853 104.282 7.83404 106.091 3.3104C107.704 -0.724611 114.067 -1.19506 116.195 2.58543C117.813 5.45962 118.984 8.73821 119.547 11.9694C120.606 18.0509 120.364 18.0907 126.636 17.8283C129.124 13.8474 131.514 10.0132 133.916 6.18604C135.207 4.12815 136.827 3.08503 139.486 3.97513C142.251 4.90055 144.998 5.63106 144.966 9.23266C144.933 12.967 144.927 16.7015 144.91 20.436C144.907 21.2 144.91 21.964 144.91 23.133C146.907 23.8406 148.924 24.5551 150.574 25.1395C153.669 22.0394 156.198 19.2139 159.044 16.7306C162.633 13.5983 164.385 13.4751 167.707 15.3994C170.994 17.303 171.545 18.6192 170.299 23.4883C169.42 26.918 168.117 30.2452 166.773 34.3173C168.092 35.4205 169.708 36.7727 171.193 38.0153C176.529 35.0829 181.589 32.302 186.167 29.7857C187.359 30.1964 187.826 30.23 188.1 30.4705C193.807 35.4775 193.969 35.8287 190.536 42.4143C189.085 45.198 187.085 47.7119 185.005 50.8447C185.87 52.1917 186.996 53.9471 188.2 55.8232C194.281 54.4931 199.702 51.0778 206.049 52.294C206.347 52.5166 206.777 52.6867 206.954 52.9941C210.395 58.9722 210.502 59.0692 205.973 64.2078C203.757 66.7214 201.033 68.8118 197.979 71.6054C198.58 73.1234 199.335 75.0322 200.015 76.7523C206.019 76.7523 211.598 76.7523 217.406 76.7523C218.249 78.8466 219.028 80.4103 219.506 82.0564C220.177 84.3704 219.568 86.3489 217.299 87.632C213.301 89.8926 209.301 92.1485 204.815 94.6806C205.051 96.3397 205.342 98.3916 205.579 100.061C210.143 101.172 214.127 101.871 217.912 103.129C223.077 104.846 223.019 105.029 222.997 110.331C222.993 111.113 222.906 111.894 222.843 112.918C217.918 116.669 211.927 117.436 205.631 117.829C205.284 120.09 204.996 121.965 204.728 123.708C209.014 126.149 212.987 128.442 216.992 130.682C219.203 131.919 220.169 133.605 219.425 136.08C218.694 138.512 218.451 141.359 214.846 141.395C210.243 141.442 205.64 141.407 200.247 141.407C199.553 142.894 198.68 144.765 197.807 146.636C198.232 146.35 198.657 146.064 199.083 145.778C201.75 148.984 204.407 152.197 207.087 155.392C208.978 157.646 210.082 159.765 208.359 162.847C206.687 165.839 204.396 166.712 201.364 166.062C197.043 165.135 192.788 163.917 188.056 162.709C186.987 164.173 185.723 165.903 184.69 167.318C186.958 171.051 189.229 174.32 191.008 177.825C193.474 182.681 193.258 183.071 189.078 186.94C188.506 187.47 187.81 187.873 186.526 188.802C181.614 186.155 176.545 183.424 170.83 180.344C169.709 181.543 168.287 183.067 166.953 185.044ZM72.6776 180.088C87.1896 187.725 102.824 190.893 119.09 189.243C143.475 186.771 163.399 175.946 178.117 156.684C192.514 137.843 197.74 116.795 193.347 93.6922C190.078 76.5027 181.534 62.0409 168.616 49.8857C154.166 36.2887 136.787 29.0204 116.924 27.6354C101.67 26.5718 87.0771 29.5533 73.4497 36.5735C46.8831 50.2593 31.6568 71.8102 28.3316 100.56C24.5944 132.873 42.4436 164.294 72.6776 180.088Z" fill="#740641"/>
<g filter="url(#filter0_b_3_5)">
<circle cx="112" cy="109" r="67" fill="#A48E8D" fill-opacity="0.33"/>
<circle cx="112" cy="109" r="66.5" stroke="url(#paint0_linear_3_5)" stroke-opacity="0.5"/>
</g>
<defs>
<filter id="filter0_b_3_5" x="35" y="32" width="154" height="154" filterUnits="userSpaceOnUse" color-interpolation-filters="sRGB">
<feFlood flood-opacity="0" result="BackgroundImageFix"/>
<feGaussianBlur in="BackgroundImageFix" stdDeviation="5"/>
<feComposite in2="SourceAlpha" operator="in" result="effect1_backgroundBlur_3_5"/>
<feBlend mode="normal" in="SourceGraphic" in2="effect1_backgroundBlur_3_5" result="shape"/>
</filter>
<linearGradient id="paint0_linear_3_5" x1="44.9293" y1="48.4269" x2="239.506" y2="89.1698" gradientUnits="userSpaceOnUse">
<stop stop-color="#DDDDDD" stop-opacity="0.74"/>
<stop offset="1" stop-color="white" stop-opacity="0"/>
</linearGradient>
</defs>
</svg>
