<svg width="170" height="111" viewBox="0 0 170 111" fill="none" xmlns="http://www.w3.org/2000/svg">
<rect x="0.751953" y="0.5" width="168.253" height="109.484" rx="54.7422" stroke="#F3F3F3"/>
<path d="M73.7989 56.7057C73.4194 56.669 72.9786 56.6384 72.4766 56.6139C71.9869 56.5772 71.4788 56.5527 70.9523 56.5404C70.4258 56.516 69.9116 56.4976 69.4096 56.4853C68.9077 56.4731 68.4669 56.467 68.0874 56.467C67.4874 56.467 66.814 56.4792 66.0672 56.5037C65.3326 56.516 64.5796 56.5466 63.8083 56.5955C63.037 56.6445 62.284 56.718 61.5494 56.8159C60.827 56.9139 60.172 57.0363 59.5843 57.1832V53.804C59.8414 53.8163 60.1598 53.8285 60.5393 53.8408C60.9311 53.8408 61.329 53.8469 61.733 53.8591C62.1371 53.8591 62.5289 53.8653 62.9084 53.8775C63.3002 53.8775 63.6308 53.8775 63.9001 53.8775C64.6225 53.8775 65.4061 53.8714 66.2508 53.8591C67.1079 53.8347 67.971 53.804 68.8403 53.7673C69.7218 53.7183 70.585 53.6632 71.4298 53.602C72.2868 53.5286 73.0765 53.4429 73.7989 53.3449V56.7057ZM92.6415 56.7057C92.2619 56.669 91.8212 56.6384 91.3192 56.6139C90.8295 56.5772 90.3214 56.5527 89.7949 56.5404C89.2684 56.516 88.7542 56.4976 88.2522 56.4853C87.7502 56.4731 87.3095 56.467 86.9299 56.467C86.33 56.467 85.6566 56.4792 84.9098 56.5037C84.1752 56.516 83.4222 56.5466 82.6509 56.5955C81.8795 56.6445 81.1266 56.718 80.392 56.8159C79.6696 56.9139 79.0146 57.0363 78.4269 57.1832V53.804C78.684 53.8163 79.0023 53.8285 79.3819 53.8408C79.7737 53.8408 80.1716 53.8469 80.5756 53.8591C80.9796 53.8591 81.3714 53.8653 81.751 53.8775C82.1428 53.8775 82.4733 53.8775 82.7427 53.8775C83.4651 53.8775 84.2486 53.8714 85.0934 53.8591C85.9505 53.8347 86.8136 53.804 87.6829 53.7673C88.5644 53.7183 89.4276 53.6632 90.2724 53.602C91.1294 53.5286 91.9191 53.4429 92.6415 53.3449V56.7057ZM109.501 56.7057L100.887 65.723L98.1694 61.2052C98.8428 61.0827 99.5345 60.8685 100.245 60.5624C100.955 60.2441 101.653 59.8829 102.338 59.4789C103.024 59.0626 103.679 58.6157 104.303 58.1382C104.928 57.6485 105.491 57.171 105.993 56.7057C105.442 56.1425 104.811 55.5977 104.101 55.0712C103.403 54.5325 102.663 54.0489 101.879 53.6204C101.108 53.1796 100.312 52.8185 99.4917 52.5369C98.6713 52.243 97.8694 52.0532 97.0858 51.9675L100.098 47.6701L109.501 56.7057Z" fill="#F3F3F3"/>
</svg>
